<svg width="500" height="565" viewBox="0 0 500 565" fill="none" xmlns="http://www.w3.org/2000/svg">
<path d="M411.001 263.64L407.301 257.14C407.401 210.74 385.901 191.84 360.801 177.44C368.401 175.44 376.201 173.84 378.401 164.24C391.501 160.94 394.201 154.84 395.501 148.44C398.901 146.14 410.301 139.74 409.101 128.74C415.501 124.34 419.101 118.64 417.201 110.64C424.101 103.14 425.901 96.9403 423.001 91.2403C431.301 80.9403 427.601 75.6403 424.101 70.3403C430.301 59.1403 424.801 47.1403 407.501 49.1403C400.601 39.0403 385.601 41.3403 383.301 41.3403C380.701 38.1403 377.301 35.3403 366.801 36.6403C360.001 30.5403 352.401 31.6403 344.501 34.5403C335.201 27.2403 329.001 33.1403 321.901 35.3403C310.601 31.7403 308.001 36.6403 302.501 38.7403C290.201 36.1403 286.401 41.7403 280.501 47.6403L273.601 47.5403C255.001 58.3403 245.801 80.3403 242.501 91.6403C239.201 80.3403 230.001 58.3403 211.401 47.5403L204.501 47.6403C198.601 41.7403 194.801 36.1403 182.501 38.7403C176.901 36.7403 174.401 31.7403 163.101 35.3403C158.501 33.9403 154.201 30.9403 149.201 31.0403C146.601 31.1403 143.701 32.0403 140.501 34.5403C132.601 31.5403 125.001 30.5403 118.201 36.6403C107.701 35.3403 104.201 38.0403 101.701 41.3403C99.401 41.3403 84.401 39.0403 77.501 49.1403C60.201 47.1403 54.801 59.1403 61.001 70.3403C57.501 75.7403 53.801 81.0403 62.101 91.2403C59.201 96.9403 61.001 103.14 67.901 110.64C66.101 118.64 69.701 124.34 76.001 128.74C74.801 139.74 86.201 146.14 89.601 148.44C90.901 154.84 93.601 160.84 106.701 164.24C108.901 173.74 116.701 175.44 124.301 177.44C99.201 191.84 77.701 210.74 77.801 257.14L74.101 263.64C45.301 280.84 19.401 336.34 59.901 381.34C62.501 395.44 67.001 405.54 70.901 416.74C76.801 461.94 115.401 483.04 125.501 485.54C140.401 496.74 156.301 507.34 177.701 514.74C198.001 535.34 220.001 543.14 242.001 543.14H243.001C265.101 543.14 287.001 535.34 307.201 514.74C328.701 507.34 344.501 496.74 359.401 485.54C369.601 483.04 408.101 461.94 414.001 416.74C417.901 405.54 422.401 395.44 425.001 381.34C465.601 336.24 439.701 280.84 411.001 263.64ZM388.801 255.64C387.301 274.34 289.901 190.54 306.701 187.74C352.401 180.24 390.301 206.94 388.801 255.64ZM345.801 348.74C321.301 364.54 286.001 354.34 267.001 325.94C248.001 297.54 252.401 261.74 276.901 245.94C301.401 230.14 336.701 240.34 355.701 268.74C374.701 297.14 370.301 332.94 345.801 348.74ZM277.901 60.4403C278.701 64.6403 279.701 67.2403 280.801 68.0403C286.201 62.2403 290.601 56.3403 297.601 50.7403C297.601 54.0403 295.901 57.5403 300.101 60.1403C303.801 55.1403 308.901 50.6403 315.601 46.8403C312.401 52.4403 315.001 54.1403 316.801 56.4403C321.901 52.0403 326.801 47.6403 336.201 44.1403C333.601 47.2403 330.001 50.3403 333.801 53.9403C339.101 50.6403 344.401 47.3403 356.901 45.0403C354.101 48.1403 348.201 51.3403 351.801 54.4403C358.401 51.9403 365.801 50.0403 373.901 49.0403C370.001 52.2403 366.801 55.3403 370.001 57.8403C377.101 55.6403 386.901 52.7403 396.401 55.2403L390.401 61.3403C389.701 62.1403 404.501 61.9403 414.301 62.1403C410.701 67.1403 407.101 71.8403 405.001 80.3403C406.001 81.3403 410.801 80.7403 415.401 80.3403C410.701 90.2403 402.601 92.6403 400.701 96.9403C403.601 99.1403 407.501 98.5403 411.901 97.0403C408.501 103.94 401.501 108.74 395.901 114.34C397.301 115.34 399.801 115.94 405.601 115.24C400.401 120.74 394.201 125.74 386.801 130.24C388.101 131.74 392.601 131.74 396.801 131.84C390.101 138.34 381.501 141.74 373.401 146.04C377.401 148.74 380.301 148.14 383.401 148.14C377.701 152.84 368.001 155.24 359.001 158.14C360.701 160.84 362.401 161.54 366.101 162.24C356.601 167.54 342.901 165.14 339.101 167.84C340.001 170.54 342.701 172.24 345.801 173.64C330.401 174.54 288.501 173.04 280.401 141.34C296.101 124.04 324.801 103.84 374.101 78.7403C335.701 91.5403 301.101 108.74 272.101 132.24C237.801 116.34 261.301 76.3403 277.901 60.4403ZM243.501 175.04C267.701 174.74 297.601 192.84 297.501 209.74C297.401 224.74 276.501 236.84 243.701 236.64C211.601 236.24 190.001 221.44 190.101 206.84C190.101 194.94 216.301 174.34 243.501 175.04ZM120.501 162.24C124.201 161.54 125.901 160.74 127.601 158.14C118.601 155.34 108.901 152.84 103.201 148.14C106.301 148.14 109.201 148.84 113.201 146.04C105.101 141.74 96.501 138.34 89.801 131.84C94.001 131.74 98.501 131.84 99.801 130.24C92.401 125.74 86.201 120.74 81.001 115.24C86.801 115.94 89.301 115.34 90.701 114.34C85.101 108.74 78.001 103.94 74.701 97.0403C79.001 98.5403 83.001 99.0403 85.901 96.9403C84.001 92.7403 75.901 90.2403 71.201 80.3403C75.801 80.7403 80.601 81.3403 81.601 80.3403C79.501 71.8403 75.801 67.0403 72.301 62.1403C82.101 62.0403 96.901 62.1403 96.201 61.3403L90.201 55.2403C99.701 52.7403 109.501 55.6403 116.601 57.8403C119.801 55.3403 116.501 52.2403 112.701 49.0403C120.801 50.1403 128.101 51.9403 134.801 54.4403C138.301 51.3403 132.501 48.1403 129.701 45.0403C142.201 47.3403 147.501 50.6403 152.801 53.9403C156.601 50.3403 153.001 47.2403 150.401 44.1403C159.801 47.5403 164.701 52.0403 169.801 56.4403C171.501 54.1403 174.201 52.4403 171.001 46.8403C177.701 50.6403 182.801 55.1403 186.501 60.1403C190.601 57.5403 189.001 53.9403 189.001 50.7403C196.001 56.3403 200.401 62.2403 205.801 68.0403C206.901 67.2403 207.801 64.6403 208.701 60.4403C225.301 76.3403 248.801 116.34 214.701 132.24C185.701 108.74 151.101 91.5403 112.701 78.7403C162.001 103.74 190.701 124.04 206.401 141.34C198.401 173.14 156.401 174.54 141.001 173.64C144.101 172.24 146.801 170.44 147.701 167.84C143.701 165.04 130.101 167.44 120.501 162.24ZM180.601 186.34C197.401 189.14 100.001 272.84 98.501 254.24C97.001 205.54 135.001 178.74 180.601 186.34ZM77.201 373.14C53.501 354.34 45.901 299.44 89.801 274.84C116.301 267.84 98.801 382.64 77.201 373.14ZM168.201 471.34C154.901 479.24 122.401 476.04 99.401 443.44C83.901 416.04 85.901 388.24 96.801 380.04C113.101 370.24 138.301 383.44 157.701 405.64C174.601 425.64 182.301 460.94 168.201 471.34ZM141.801 351.64C117.301 335.84 112.901 300.04 131.901 271.64C150.901 243.24 186.201 233.04 210.701 248.84C235.201 264.64 239.601 300.44 220.601 328.84C201.501 357.24 166.201 367.44 141.801 351.64ZM244.001 527.14C214.601 528.34 185.801 503.44 186.201 494.84C185.801 482.14 222.001 472.24 245.501 472.84C269.201 471.84 301.101 480.34 301.201 491.74C301.701 502.74 272.401 527.64 244.001 527.14ZM302.901 402.24C303.101 431.94 276.701 456.04 244.101 456.24C211.501 456.44 184.901 432.44 184.701 402.84V402.24C184.501 372.54 210.901 348.44 243.501 348.24C276.101 348.04 302.701 372.04 302.901 401.64V402.24ZM385.101 444.94C359.801 479.54 325.501 480.84 312.801 471.24C299.501 458.84 309.601 420.34 327.901 399.24C348.801 375.94 371.201 360.74 386.801 372.64C397.301 382.94 403.501 421.74 385.101 444.94ZM408.001 371.74C386.501 381.14 369.001 266.44 395.401 273.44C439.301 298.14 431.701 353.04 408.001 371.74Z" fill="black"/>
</svg>
