<svg width="634" height="643" viewBox="0 0 634 643" fill="none" xmlns="http://www.w3.org/2000/svg">
<g filter="url(#filter0_d_1_20)">
<path d="M284.188 48.8237L275.088 49.8237L272.288 62.9237C265.188 96.5237 269.888 120.924 287.888 142.724L291.688 147.424L282.888 165.724C274.488 183.124 258.888 218.024 253.588 231.124L251.088 237.224L275.688 243.424C311.888 252.524 361.688 264.424 366.588 265.224C370.688 265.824 370.788 265.824 371.988 262.524C373.888 257.024 380.688 244.624 385.488 237.724C389.688 231.824 405.588 214.924 406.088 215.724C406.188 215.924 406.088 223.524 405.788 232.624C405.488 241.724 405.288 249.224 405.388 249.324C405.388 249.524 408.688 248.224 412.788 246.524C421.588 242.824 425.988 242.924 434.688 247.324L440.588 250.124L440.088 235.624C439.888 227.624 439.588 219.924 439.388 218.324C439.288 216.824 439.488 215.624 439.888 215.624C441.388 215.624 456.488 232.524 461.488 239.824C466.688 247.224 474.788 262.424 474.788 264.624C474.788 265.224 475.588 265.524 476.588 265.224C477.488 265.024 480.988 264.224 484.288 263.624C500.988 260.324 598.888 237.824 599.688 237.024C600.288 236.424 584.788 205.024 567.688 172.324L554.688 147.524L559.588 141.324C568.088 130.624 573.688 118.124 576.388 103.924C578.588 92.4237 577.788 78.1237 574.088 62.1237L571.288 50.1237L566.288 49.3237C563.488 48.8237 552.988 48.3237 542.788 48.3237C526.488 48.2237 523.288 48.5237 516.288 50.4237C500.788 54.7237 487.188 62.5237 475.188 73.8237L468.188 80.5237L461.988 78.6237C438.188 71.2237 407.488 71.2237 383.788 78.5237L377.988 80.3237L371.588 74.2237C359.988 62.9237 345.688 54.7237 330.288 50.6237C320.788 48.0237 298.688 47.2237 284.188 48.8237ZM321.088 70.6237C333.088 72.4237 343.888 77.2237 353.088 85.0237L356.888 88.2237L351.088 92.0237C347.888 94.1237 344.388 96.7237 343.188 97.7237C341.188 99.6237 341.088 99.6237 335.688 96.7237C330.588 93.9237 321.988 91.0237 321.188 91.8237C321.088 92.0237 321.488 95.8237 322.288 100.124C324.388 111.924 324.288 112.524 318.488 121.524L313.188 129.624L306.488 100.424C302.788 84.3237 299.688 70.8237 299.788 70.3237C299.788 69.3237 312.988 69.5237 321.088 70.6237ZM543.688 70.2237C545.388 70.6237 546.588 71.2237 546.288 71.6237C545.788 72.4237 541.188 92.7237 536.588 113.824C534.888 122.024 533.188 128.624 532.888 128.624C532.588 128.524 529.888 124.824 526.988 120.224L521.788 111.824L523.288 102.124C524.188 96.7237 524.688 92.2237 524.488 92.0237C523.888 91.3237 514.488 94.5237 509.988 96.9237L505.588 99.2237L497.288 93.7237C487.588 87.3237 487.588 87.6237 498.188 80.7237C511.088 72.2237 530.988 67.7237 543.688 70.2237ZM397.288 146.824C399.088 154.524 404.788 182.924 404.788 184.124C404.788 185.124 403.488 184.724 400.088 182.624C394.488 179.224 385.288 176.624 378.788 176.624C372.588 176.624 362.788 179.124 356.888 182.124C349.188 186.024 332.588 199.724 317.788 214.324L304.288 227.624L292.488 224.924C279.288 221.924 279.788 222.724 285.088 213.724C294.388 198.124 316.688 174.724 333.888 162.424C351.888 149.524 365.688 145.124 388.988 144.724C396.288 144.624 396.788 144.724 397.288 146.824ZM481.788 147.724C499.388 152.124 518.688 164.824 538.988 185.324C551.688 198.224 556.988 204.524 564.088 215.124L568.788 222.024L556.988 224.824C550.588 226.324 544.988 227.524 544.688 227.624C544.288 227.624 539.188 223.024 533.188 217.524C512.088 197.824 493.288 183.824 482.288 179.624C470.388 175.024 454.488 176.724 444.888 183.724C442.588 185.324 440.788 186.424 440.788 186.124C440.788 185.824 442.588 176.724 444.788 165.924C446.988 155.024 448.788 145.724 448.788 145.224C448.788 143.724 472.588 145.524 481.788 147.724ZM380.788 195.124C384.088 196.824 386.788 201.224 386.788 204.924C386.788 208.624 382.688 213.924 379.088 214.924C374.788 216.224 371.088 215.124 367.688 211.624C365.388 209.424 364.788 207.824 364.788 204.624C364.788 199.524 365.988 197.124 369.588 195.224C373.088 193.224 377.188 193.224 380.788 195.124ZM477.388 197.024C480.188 199.824 480.788 201.124 480.788 204.724C480.688 216.224 466.388 219.624 460.388 209.624C457.688 205.024 458.288 200.924 462.188 197.024C464.988 194.224 466.388 193.624 469.788 193.624C473.188 193.624 474.588 194.224 477.388 197.024Z" fill="black"/>
<path d="M243.188 155.124C169.688 165.924 107.688 205.524 68.8876 266.524C44.8876 304.324 32.2876 351.724 34.1876 397.724C35.4876 430.424 42.0876 456.924 56.2876 486.224C75.7876 526.524 106.288 559.124 145.488 581.824C159.188 589.724 181.188 599.624 182.388 598.324C182.688 598.024 180.288 593.824 176.988 588.924C159.488 563.024 153.788 541.324 158.288 519.024C160.288 509.724 162.688 504.124 168.388 495.524C186.888 467.624 225.588 453.224 290.588 450.024C300.588 449.524 304.788 449.024 304.788 448.124C304.788 445.524 300.588 434.924 296.688 427.724C275.588 388.324 233.888 367.724 187.288 373.524C170.688 375.624 145.888 382.524 129.488 389.524C125.288 391.324 124.888 391.424 125.688 389.824C127.488 386.624 143.288 371.824 149.288 367.824C172.188 352.524 199.788 346.524 226.388 351.124C258.888 356.824 289.688 377.024 308.288 405.024C315.188 415.424 321.888 429.724 324.788 440.124C325.988 444.524 327.188 448.724 327.388 449.324C327.588 450.224 330.188 450.624 335.488 450.624C350.988 450.624 379.488 454.724 403.288 460.224C438.588 468.524 467.488 480.024 491.188 495.324C499.688 500.724 518.788 514.824 518.788 515.624C518.688 515.924 514.388 519.624 508.988 523.924C503.688 528.224 497.488 533.324 495.288 535.224L491.288 538.624L521.488 538.424L551.588 538.124L555.988 535.024C563.988 529.124 567.688 518.424 564.588 509.524C561.388 500.124 553.988 493.524 542.788 490.124C527.988 485.624 519.988 471.424 514.688 440.524C512.888 430.324 512.688 425.524 513.088 413.624C513.688 396.624 515.588 386.524 523.288 359.624C529.688 337.224 533.188 321.624 534.888 309.124C535.988 300.524 535.788 275.224 534.488 274.024C534.188 273.724 531.588 274.124 528.588 274.924C525.688 275.824 521.488 276.924 519.188 277.524L515.088 278.624L514.888 286.824C514.788 291.424 513.788 299.624 512.688 305.124C508.588 325.424 501.988 341.324 483.388 376.124C476.588 388.724 469.388 403.324 467.388 408.424C463.288 418.524 458.788 436.824 458.788 443.024C458.788 448.424 457.588 446.624 455.388 438.124C452.688 427.424 446.688 416.824 439.488 409.924C435.888 406.524 427.588 400.524 419.688 395.824C395.688 381.424 382.488 371.024 369.188 355.824C351.488 335.724 341.088 314.524 337.188 291.024C336.288 285.624 335.488 281.024 335.388 280.924C335.188 280.624 316.088 275.624 274.788 264.724C257.988 260.324 239.988 255.524 234.688 254.124L224.988 251.424L228.788 242.224C243.188 207.324 247.688 196.724 255.788 177.624C260.888 165.824 265.188 155.524 265.488 154.824C266.188 153.224 255.588 153.324 243.188 155.124Z" fill="black"/>
<path d="M397.788 262.524C397.788 265.124 398.288 268.724 398.888 270.524C400.588 275.424 418.188 289.624 422.588 289.624C424.488 289.624 432.988 284.324 439.688 278.824C445.888 273.724 447.788 270.224 447.788 263.324V257.624H422.788H397.788V262.524Z" fill="black"/>
<path d="M369.988 290.824C374.988 300.224 386.688 311.524 395.888 315.924C413.988 324.424 431.888 324.424 449.688 315.924C458.488 311.724 469.788 301.124 474.588 292.424C477.688 286.824 478.588 284.024 476.988 285.024C476.588 285.224 472.888 285.624 468.788 285.724C461.488 285.924 461.188 286.024 456.288 290.424C453.588 292.924 447.988 296.524 443.988 298.424C437.488 301.524 435.388 302.024 426.888 302.424C411.088 303.124 398.988 299.324 389.888 290.524C386.288 287.124 384.788 286.424 380.388 286.024C377.588 285.724 373.388 285.324 370.988 285.124L366.688 284.624L369.988 290.824Z" fill="black"/>
<path d="M282.888 472.324L276.488 472.724L277.088 481.524C279.088 509.024 291.988 548.224 307.988 575.624C314.388 586.524 326.388 603.624 327.588 603.624C331.388 603.624 370.288 592.324 371.988 590.824C372.388 590.424 369.988 586.724 366.688 582.624C341.088 550.724 325.288 514.224 322.288 479.324L321.588 471.624L305.388 471.824C296.588 471.924 286.388 472.124 282.888 472.324Z" fill="black"/>
<path d="M358.388 478.324C362.088 504.124 383.588 549.124 404.088 574.124L406.588 577.124L410.888 574.724C428.488 565.124 443.688 555.924 443.388 555.124C443.188 554.524 439.388 549.024 434.988 542.824C422.488 525.424 412.988 507.624 406.788 490.224C405.188 485.924 403.588 482.024 403.088 481.624C402.088 480.724 388.488 478.124 373.788 476.124C367.488 475.224 361.288 474.324 359.988 474.024C357.688 473.524 357.688 473.724 358.388 478.324Z" fill="black"/>
<path d="M226.588 481.624C217.188 484.824 208.588 488.924 202.488 493.024C200.388 494.424 198.288 495.624 197.788 495.624C196.388 495.624 196.588 507.624 198.288 519.324C201.388 541.024 208.388 562.124 220.888 587.124C225.788 597.024 230.688 606.224 231.688 607.524L233.588 610.024L257.588 610.424C270.888 610.724 283.288 610.524 285.188 610.224L288.688 609.524L281.488 599.824C271.588 586.624 265.688 577.124 259.288 564.124C248.588 542.324 241.388 515.024 240.188 491.124C239.388 476.424 240.188 477.024 226.588 481.624Z" fill="black"/>
<path d="M452.188 504.624C455.388 512.024 462.788 525.524 466.288 530.024C467.588 531.724 468.088 531.524 475.488 525.524C479.788 522.124 483.888 518.824 484.588 518.124C485.588 517.224 484.088 515.824 477.388 511.324C469.288 505.924 451.888 496.624 449.888 496.624C449.288 496.624 450.388 500.224 452.188 504.624Z" fill="black"/>
</g>
<defs>
<filter id="filter0_d_1_20" x="-4" y="0" width="642" height="651" filterUnits="userSpaceOnUse" color-interpolation-filters="sRGB">
<feFlood flood-opacity="0" result="BackgroundImageFix"/>
<feColorMatrix in="SourceAlpha" type="matrix" values="0 0 0 0 0 0 0 0 0 0 0 0 0 0 0 0 0 0 127 0" result="hardAlpha"/>
<feOffset dy="4"/>
<feGaussianBlur stdDeviation="2"/>
<feComposite in2="hardAlpha" operator="out"/>
<feColorMatrix type="matrix" values="0 0 0 0 0 0 0 0 0 0 0 0 0 0 0 0 0 0 0.25 0"/>
<feBlend mode="normal" in2="BackgroundImageFix" result="effect1_dropShadow_1_20"/>
<feBlend mode="normal" in="SourceGraphic" in2="effect1_dropShadow_1_20" result="shape"/>
</filter>
</defs>
</svg>
